<mxfile host="Electron" modified="2024-02-22T15:31:21.120Z" agent="Mozilla/5.0 (X11; Linux x86_64) AppleWebKit/537.36 (KHTML, like Gecko) draw.io/22.1.21 Chrome/120.0.6099.109 Electron/28.1.0 Safari/537.36" etag="Q-Ez48bPZ7U4GB1K33kw" version="22.1.21" type="device">
  <diagram name="StrÃ¡nka-1" id="ewOHrh2bMUzIOLQwtSGh">
    <mxGraphModel dx="1071" dy="1770" grid="1" gridSize="10" guides="1" tooltips="1" connect="1" arrows="1" fold="1" page="1" pageScale="1" pageWidth="1654" pageHeight="2336" math="1" shadow="0">
      <root>
        <mxCell id="0" />
        <mxCell id="1" parent="0" />
        <mxCell id="Y2V-wiZcViisukyR3Fqz-19" value="" style="rounded=1;whiteSpace=wrap;html=1;strokeWidth=5;dashed=1;arcSize=25;" vertex="1" parent="1">
          <mxGeometry x="460" y="340" width="450" height="180" as="geometry" />
        </mxCell>
        <mxCell id="Y2V-wiZcViisukyR3Fqz-8" value="" style="ellipse;whiteSpace=wrap;html=1;aspect=fixed;strokeWidth=5;" vertex="1" parent="1">
          <mxGeometry x="650" y="640" width="80" height="80" as="geometry" />
        </mxCell>
        <mxCell id="Y2V-wiZcViisukyR3Fqz-7" value="" style="ellipse;whiteSpace=wrap;html=1;aspect=fixed;strokeWidth=5;" vertex="1" parent="1">
          <mxGeometry x="810" y="640" width="80" height="80" as="geometry" />
        </mxCell>
        <mxCell id="Y2V-wiZcViisukyR3Fqz-6" value="" style="ellipse;whiteSpace=wrap;html=1;aspect=fixed;strokeWidth=5;" vertex="1" parent="1">
          <mxGeometry x="1010" y="640" width="80" height="80" as="geometry" />
        </mxCell>
        <mxCell id="qpencJFPLMpscfdZpnWB-9" style="edgeStyle=orthogonalEdgeStyle;rounded=0;orthogonalLoop=1;jettySize=auto;html=1;entryX=0;entryY=0.5;entryDx=0;entryDy=0;strokeWidth=3;" parent="1" source="qpencJFPLMpscfdZpnWB-2" target="qpencJFPLMpscfdZpnWB-3" edge="1">
          <mxGeometry relative="1" as="geometry" />
        </mxCell>
        <mxCell id="qpencJFPLMpscfdZpnWB-2" value="&lt;font style=&quot;font-size: 30px;&quot;&gt;\(f_1\)&lt;/font&gt;" style="ellipse;whiteSpace=wrap;html=1;aspect=fixed;strokeWidth=5;" parent="1" vertex="1">
          <mxGeometry x="490" y="360" width="80" height="80" as="geometry" />
        </mxCell>
        <mxCell id="qpencJFPLMpscfdZpnWB-10" style="edgeStyle=orthogonalEdgeStyle;rounded=0;orthogonalLoop=1;jettySize=auto;html=1;entryX=0;entryY=0.5;entryDx=0;entryDy=0;strokeWidth=3;" parent="1" source="qpencJFPLMpscfdZpnWB-3" target="qpencJFPLMpscfdZpnWB-4" edge="1">
          <mxGeometry relative="1" as="geometry" />
        </mxCell>
        <mxCell id="qpencJFPLMpscfdZpnWB-3" value="&lt;font style=&quot;font-size: 30px;&quot;&gt;\(f_2\)&lt;/font&gt;" style="ellipse;whiteSpace=wrap;html=1;aspect=fixed;strokeWidth=5;" parent="1" vertex="1">
          <mxGeometry x="650" y="360" width="80" height="80" as="geometry" />
        </mxCell>
        <mxCell id="qpencJFPLMpscfdZpnWB-4" value="&lt;font style=&quot;font-size: 30px;&quot;&gt;\(f_n\)&lt;/font&gt;" style="ellipse;whiteSpace=wrap;html=1;aspect=fixed;strokeWidth=5;" parent="1" vertex="1">
          <mxGeometry x="810" y="360" width="80" height="80" as="geometry" />
        </mxCell>
        <mxCell id="qpencJFPLMpscfdZpnWB-8" style="edgeStyle=orthogonalEdgeStyle;rounded=0;orthogonalLoop=1;jettySize=auto;html=1;entryX=0;entryY=0.5;entryDx=0;entryDy=0;strokeWidth=3;" parent="1" target="qpencJFPLMpscfdZpnWB-2" edge="1">
          <mxGeometry relative="1" as="geometry">
            <mxPoint x="440" y="400" as="sourcePoint" />
          </mxGeometry>
        </mxCell>
        <mxCell id="qpencJFPLMpscfdZpnWB-12" value="" style="shape=curlyBracket;whiteSpace=wrap;html=1;rounded=1;labelPosition=left;verticalLabelPosition=middle;align=right;verticalAlign=middle;rotation=-90;strokeWidth=5;perimeterSpacing=0;size=0.4;" parent="1" vertex="1">
          <mxGeometry x="760" y="430" width="50" height="614.38" as="geometry" />
        </mxCell>
        <mxCell id="qpencJFPLMpscfdZpnWB-13" value="&lt;font style=&quot;font-size: 30px;&quot;&gt;\(\frac{\partial&amp;nbsp; &amp;nbsp;\text{ loss}}{\partial x}\)&lt;/font&gt;" style="text;html=1;strokeColor=none;fillColor=none;align=center;verticalAlign=middle;whiteSpace=wrap;rounded=0;strokeWidth=25;fontStyle=1" parent="1" vertex="1">
          <mxGeometry x="750" y="760" width="60" height="60" as="geometry" />
        </mxCell>
        <mxCell id="4E3rrX-12LAw-Cvaq8p3-1" value="&lt;font style=&quot;font-size: 30px;&quot;&gt;\(x\)&lt;/font&gt;" style="text;html=1;strokeColor=none;fillColor=none;align=center;verticalAlign=middle;whiteSpace=wrap;rounded=0;" parent="1" vertex="1">
          <mxGeometry x="400" y="381" width="40" height="30" as="geometry" />
        </mxCell>
        <mxCell id="Y2V-wiZcViisukyR3Fqz-1" value="&lt;font style=&quot;font-size: 30px;&quot;&gt;\(\text{Forward pass} \hspace{5mm} F(x) = f_{cost}(f(x))\)&lt;/font&gt;" style="text;html=1;strokeColor=none;fillColor=none;align=left;verticalAlign=middle;whiteSpace=wrap;rounded=0;" vertex="1" parent="1">
          <mxGeometry x="400" y="270" width="720" height="40" as="geometry" />
        </mxCell>
        <mxCell id="Y2V-wiZcViisukyR3Fqz-2" value="&lt;font style=&quot;font-size: 30px;&quot;&gt;\(\text{Backward pass}\hspace{5mm}&lt;br&gt;&amp;nbsp;F&#39;(x) = \frac{\partial&amp;nbsp; &amp;nbsp;\text{ loss}}{\partial x}&lt;br&gt;&amp;nbsp;\)&lt;/font&gt;" style="text;html=1;strokeColor=none;fillColor=none;align=left;verticalAlign=middle;whiteSpace=wrap;rounded=0;" vertex="1" parent="1">
          <mxGeometry x="400" y="580" width="340" height="40" as="geometry" />
        </mxCell>
        <mxCell id="Y2V-wiZcViisukyR3Fqz-3" value="&lt;font style=&quot;font-size: 30px;&quot;&gt;\(\frac{\partial \text{ loss}}{\partial y}\)&lt;/font&gt;" style="text;html=1;strokeColor=none;fillColor=none;align=center;verticalAlign=middle;whiteSpace=wrap;rounded=0;strokeWidth=25;fontStyle=1" vertex="1" parent="1">
          <mxGeometry x="1020" y="635" width="60" height="90" as="geometry" />
        </mxCell>
        <mxCell id="Y2V-wiZcViisukyR3Fqz-4" value="&lt;font style=&quot;font-size: 30px;&quot;&gt;\(\frac{\partial y}{\partial b}\)&lt;/font&gt;" style="text;html=1;strokeColor=none;fillColor=none;align=center;verticalAlign=middle;whiteSpace=wrap;rounded=0;strokeWidth=25;fontStyle=0" vertex="1" parent="1">
          <mxGeometry x="820" y="635" width="60" height="90" as="geometry" />
        </mxCell>
        <mxCell id="Y2V-wiZcViisukyR3Fqz-5" value="&lt;font style=&quot;font-size: 30px;&quot;&gt;\(\frac{\partial b}{\partial a}\)&lt;/font&gt;" style="text;html=1;strokeColor=none;fillColor=none;align=center;verticalAlign=middle;whiteSpace=wrap;rounded=0;strokeWidth=25;fontStyle=1" vertex="1" parent="1">
          <mxGeometry x="660" y="635" width="60" height="90" as="geometry" />
        </mxCell>
        <mxCell id="Y2V-wiZcViisukyR3Fqz-9" style="edgeStyle=orthogonalEdgeStyle;rounded=0;orthogonalLoop=1;jettySize=auto;html=1;strokeWidth=3;exitX=0;exitY=0.5;exitDx=0;exitDy=0;" edge="1" parent="1" source="Y2V-wiZcViisukyR3Fqz-6">
          <mxGeometry relative="1" as="geometry">
            <mxPoint x="890" y="679.66" as="sourcePoint" />
            <mxPoint x="890" y="680" as="targetPoint" />
          </mxGeometry>
        </mxCell>
        <mxCell id="Y2V-wiZcViisukyR3Fqz-10" style="edgeStyle=orthogonalEdgeStyle;rounded=0;orthogonalLoop=1;jettySize=auto;html=1;strokeWidth=3;exitX=0;exitY=0.5;exitDx=0;exitDy=0;" edge="1" parent="1">
          <mxGeometry relative="1" as="geometry">
            <mxPoint x="810" y="679.66" as="sourcePoint" />
            <mxPoint x="730" y="679.66" as="targetPoint" />
          </mxGeometry>
        </mxCell>
        <mxCell id="Y2V-wiZcViisukyR3Fqz-11" value="&lt;font style=&quot;font-size: 30px;&quot;&gt;\(f_{cost}\)&lt;/font&gt;" style="ellipse;whiteSpace=wrap;html=1;aspect=fixed;strokeWidth=5;" vertex="1" parent="1">
          <mxGeometry x="1010" y="360" width="80" height="80" as="geometry" />
        </mxCell>
        <mxCell id="Y2V-wiZcViisukyR3Fqz-15" style="edgeStyle=orthogonalEdgeStyle;rounded=0;orthogonalLoop=1;jettySize=auto;html=1;entryX=0;entryY=0.5;entryDx=0;entryDy=0;strokeWidth=3;" edge="1" parent="1">
          <mxGeometry relative="1" as="geometry">
            <mxPoint x="1090" y="399.76" as="sourcePoint" />
            <mxPoint x="1140" y="399.76" as="targetPoint" />
          </mxGeometry>
        </mxCell>
        <mxCell id="Y2V-wiZcViisukyR3Fqz-17" value="&lt;font style=&quot;font-size: 30px;&quot;&gt;\(\text{loss}\)&lt;/font&gt;" style="text;html=1;strokeColor=none;fillColor=none;align=center;verticalAlign=middle;whiteSpace=wrap;rounded=0;" vertex="1" parent="1">
          <mxGeometry x="1150" y="385" width="40" height="30" as="geometry" />
        </mxCell>
        <mxCell id="Y2V-wiZcViisukyR3Fqz-20" value="&lt;font style=&quot;font-size: 30px;&quot;&gt;\(\text{Neural network }f(x)\)&lt;/font&gt;" style="text;html=1;strokeColor=none;fillColor=none;align=center;verticalAlign=middle;whiteSpace=wrap;rounded=0;fontStyle=0" vertex="1" parent="1">
          <mxGeometry x="570" y="470" width="240" height="40" as="geometry" />
        </mxCell>
        <mxCell id="Y2V-wiZcViisukyR3Fqz-21" value="&lt;font style=&quot;font-size: 30px;&quot;&gt;\(a\)&lt;/font&gt;" style="text;html=1;strokeColor=none;fillColor=none;align=center;verticalAlign=middle;whiteSpace=wrap;rounded=0;" vertex="1" parent="1">
          <mxGeometry x="590" y="360" width="40" height="30" as="geometry" />
        </mxCell>
        <mxCell id="Y2V-wiZcViisukyR3Fqz-23" value="&lt;font style=&quot;font-size: 30px;&quot;&gt;\(b\)&lt;/font&gt;" style="text;html=1;strokeColor=none;fillColor=none;align=center;verticalAlign=middle;whiteSpace=wrap;rounded=0;" vertex="1" parent="1">
          <mxGeometry x="750" y="360" width="40" height="30" as="geometry" />
        </mxCell>
        <mxCell id="Y2V-wiZcViisukyR3Fqz-24" value="&lt;font style=&quot;font-size: 30px;&quot;&gt;\(y\)&lt;/font&gt;" style="text;html=1;strokeColor=none;fillColor=none;align=center;verticalAlign=middle;whiteSpace=wrap;rounded=0;" vertex="1" parent="1">
          <mxGeometry x="940" y="381" width="30" height="30" as="geometry" />
        </mxCell>
        <mxCell id="Y2V-wiZcViisukyR3Fqz-25" style="edgeStyle=orthogonalEdgeStyle;rounded=0;orthogonalLoop=1;jettySize=auto;html=1;entryX=0;entryY=0.5;entryDx=0;entryDy=0;strokeWidth=3;" edge="1" parent="1">
          <mxGeometry relative="1" as="geometry">
            <mxPoint x="890" y="399.71" as="sourcePoint" />
            <mxPoint x="940" y="399.71" as="targetPoint" />
          </mxGeometry>
        </mxCell>
        <mxCell id="Y2V-wiZcViisukyR3Fqz-26" style="edgeStyle=orthogonalEdgeStyle;rounded=0;orthogonalLoop=1;jettySize=auto;html=1;entryX=0;entryY=0.5;entryDx=0;entryDy=0;strokeWidth=3;" edge="1" parent="1">
          <mxGeometry relative="1" as="geometry">
            <mxPoint x="970" y="400" as="sourcePoint" />
            <mxPoint x="1010" y="399.71" as="targetPoint" />
          </mxGeometry>
        </mxCell>
        <mxCell id="Y2V-wiZcViisukyR3Fqz-34" value="" style="ellipse;whiteSpace=wrap;html=1;aspect=fixed;strokeWidth=5;" vertex="1" parent="1">
          <mxGeometry x="490" y="640" width="80" height="80" as="geometry" />
        </mxCell>
        <mxCell id="Y2V-wiZcViisukyR3Fqz-35" value="&lt;font style=&quot;font-size: 30px;&quot;&gt;\(\frac{\partial a}{\partial x}\)&lt;/font&gt;" style="text;html=1;strokeColor=none;fillColor=none;align=center;verticalAlign=middle;whiteSpace=wrap;rounded=0;strokeWidth=25;fontStyle=1" vertex="1" parent="1">
          <mxGeometry x="500" y="635" width="60" height="90" as="geometry" />
        </mxCell>
        <mxCell id="Y2V-wiZcViisukyR3Fqz-36" style="edgeStyle=orthogonalEdgeStyle;rounded=0;orthogonalLoop=1;jettySize=auto;html=1;strokeWidth=3;exitX=0;exitY=0.5;exitDx=0;exitDy=0;" edge="1" parent="1">
          <mxGeometry relative="1" as="geometry">
            <mxPoint x="650" y="679.66" as="sourcePoint" />
            <mxPoint x="570" y="679.66" as="targetPoint" />
          </mxGeometry>
        </mxCell>
      </root>
    </mxGraphModel>
  </diagram>
</mxfile>
